<mxfile host="app.diagrams.net" modified="2022-01-06T07:13:14.756Z" agent="5.0 (Macintosh; Intel Mac OS X 10_15_7) AppleWebKit/537.36 (KHTML, like Gecko) Chrome/96.0.4664.110 Safari/537.36" etag="Tzxt0hAIbFlFSHYYQ2pL" version="16.1.2" type="github">
  <diagram id="MRLumtQFugWmHpsNUWH9" name="Page-1">
    <mxGraphModel dx="1298" dy="809" grid="1" gridSize="10" guides="1" tooltips="1" connect="1" arrows="1" fold="1" page="1" pageScale="1" pageWidth="827" pageHeight="1169" math="0" shadow="0">
      <root>
        <mxCell id="0" />
        <mxCell id="1" parent="0" />
        <mxCell id="B7pZqtaMHlKjASyPlcRu-1" style="edgeStyle=orthogonalEdgeStyle;rounded=0;orthogonalLoop=1;jettySize=auto;html=1;exitX=0.5;exitY=1;exitDx=0;exitDy=0;" edge="1" parent="1" source="M-3te0TH6qk-WWZfM-NY-1" target="B7pZqtaMHlKjASyPlcRu-2">
          <mxGeometry relative="1" as="geometry">
            <mxPoint x="245" y="120" as="targetPoint" />
          </mxGeometry>
        </mxCell>
        <mxCell id="M-3te0TH6qk-WWZfM-NY-1" value="开始" style="rounded=1;whiteSpace=wrap;html=1;" parent="1" vertex="1">
          <mxGeometry x="205" y="40" width="80" height="50" as="geometry" />
        </mxCell>
        <mxCell id="M-3te0TH6qk-WWZfM-NY-5" value="" style="edgeStyle=orthogonalEdgeStyle;rounded=0;orthogonalLoop=1;jettySize=auto;html=1;" parent="1" source="M-3te0TH6qk-WWZfM-NY-3" target="M-3te0TH6qk-WWZfM-NY-4" edge="1">
          <mxGeometry relative="1" as="geometry" />
        </mxCell>
        <mxCell id="M-3te0TH6qk-WWZfM-NY-3" value="commit合法性检查" style="rounded=0;whiteSpace=wrap;html=1;" parent="1" vertex="1">
          <mxGeometry x="178.45" y="310" width="133.12" height="50" as="geometry" />
        </mxCell>
        <mxCell id="M-3te0TH6qk-WWZfM-NY-7" value="" style="edgeStyle=orthogonalEdgeStyle;rounded=0;orthogonalLoop=1;jettySize=auto;html=1;" parent="1" source="M-3te0TH6qk-WWZfM-NY-4" target="M-3te0TH6qk-WWZfM-NY-6" edge="1">
          <mxGeometry relative="1" as="geometry" />
        </mxCell>
        <mxCell id="M-3te0TH6qk-WWZfM-NY-4" value="编译" style="whiteSpace=wrap;html=1;rounded=0;" parent="1" vertex="1">
          <mxGeometry x="175.63" y="400" width="138.75" height="50" as="geometry" />
        </mxCell>
        <mxCell id="M-3te0TH6qk-WWZfM-NY-13" value="" style="edgeStyle=orthogonalEdgeStyle;rounded=0;orthogonalLoop=1;jettySize=auto;html=1;" parent="1" source="M-3te0TH6qk-WWZfM-NY-6" target="M-3te0TH6qk-WWZfM-NY-12" edge="1">
          <mxGeometry relative="1" as="geometry" />
        </mxCell>
        <mxCell id="M-3te0TH6qk-WWZfM-NY-6" value="上传包管理平台" style="whiteSpace=wrap;html=1;rounded=0;" parent="1" vertex="1">
          <mxGeometry x="173.13" y="490" width="143.75" height="50" as="geometry" />
        </mxCell>
        <mxCell id="M-3te0TH6qk-WWZfM-NY-12" value="结束" style="rounded=1;whiteSpace=wrap;html=1;" parent="1" vertex="1">
          <mxGeometry x="190" y="660" width="110" height="50" as="geometry" />
        </mxCell>
        <mxCell id="M-3te0TH6qk-WWZfM-NY-16" value="" style="edgeStyle=orthogonalEdgeStyle;rounded=0;orthogonalLoop=1;jettySize=auto;html=1;" parent="1" source="M-3te0TH6qk-WWZfM-NY-14" target="M-3te0TH6qk-WWZfM-NY-3" edge="1">
          <mxGeometry relative="1" as="geometry" />
        </mxCell>
        <mxCell id="M-3te0TH6qk-WWZfM-NY-17" value="Y" style="edgeLabel;html=1;align=center;verticalAlign=middle;resizable=0;points=[];" parent="M-3te0TH6qk-WWZfM-NY-16" vertex="1" connectable="0">
          <mxGeometry x="-0.1362" y="1" relative="1" as="geometry">
            <mxPoint y="3" as="offset" />
          </mxGeometry>
        </mxCell>
        <mxCell id="M-3te0TH6qk-WWZfM-NY-23" value="N" style="edgeStyle=orthogonalEdgeStyle;rounded=0;orthogonalLoop=1;jettySize=auto;html=1;exitX=1;exitY=0.5;exitDx=0;exitDy=0;entryX=0;entryY=0.5;entryDx=0;entryDy=0;" parent="1" source="M-3te0TH6qk-WWZfM-NY-14" target="M-3te0TH6qk-WWZfM-NY-22" edge="1">
          <mxGeometry relative="1" as="geometry" />
        </mxCell>
        <mxCell id="M-3te0TH6qk-WWZfM-NY-14" value="是否是master分支或者提测" style="rhombus;whiteSpace=wrap;html=1;rounded=1;" parent="1" vertex="1">
          <mxGeometry x="205" y="190" width="80" height="70" as="geometry" />
        </mxCell>
        <mxCell id="M-3te0TH6qk-WWZfM-NY-24" style="edgeStyle=orthogonalEdgeStyle;rounded=0;orthogonalLoop=1;jettySize=auto;html=1;entryX=1;entryY=0.5;entryDx=0;entryDy=0;" parent="1" source="M-3te0TH6qk-WWZfM-NY-22" target="M-3te0TH6qk-WWZfM-NY-3" edge="1">
          <mxGeometry relative="1" as="geometry">
            <Array as="points">
              <mxPoint x="430" y="328" />
            </Array>
          </mxGeometry>
        </mxCell>
        <mxCell id="M-3te0TH6qk-WWZfM-NY-22" value="手动选分支打包" style="rounded=0;whiteSpace=wrap;html=1;" parent="1" vertex="1">
          <mxGeometry x="370" y="200" width="120" height="50" as="geometry" />
        </mxCell>
        <mxCell id="B7pZqtaMHlKjASyPlcRu-3" value="" style="edgeStyle=orthogonalEdgeStyle;rounded=0;orthogonalLoop=1;jettySize=auto;html=1;" edge="1" parent="1" source="B7pZqtaMHlKjASyPlcRu-2" target="M-3te0TH6qk-WWZfM-NY-14">
          <mxGeometry relative="1" as="geometry" />
        </mxCell>
        <mxCell id="B7pZqtaMHlKjASyPlcRu-2" value="提交代码触发流水线" style="rounded=0;whiteSpace=wrap;html=1;" vertex="1" parent="1">
          <mxGeometry x="181.26" y="120" width="127.5" height="50" as="geometry" />
        </mxCell>
        <mxCell id="B7pZqtaMHlKjASyPlcRu-10" value="下载" style="whiteSpace=wrap;html=1;rounded=0;" vertex="1" parent="1">
          <mxGeometry x="175.63" y="580" width="143.75" height="50" as="geometry" />
        </mxCell>
      </root>
    </mxGraphModel>
  </diagram>
</mxfile>
